<svg xmlns="http://www.w3.org/2000/svg" xmlns:xlink="http://www.w3.org/1999/xlink" width="608" zoomAndPan="magnify" viewBox="0 0 456 353.999987" height="472" preserveAspectRatio="xMidYMid meet" version="1.2"><defs/><g id="5af3af3d9c"><g style="fill:#000000;fill-opacity:1;"><g transform="translate(319.476821, 263.376395)"><path style="stroke:none" d="M -80.6875 -147.515625 C -80.6875 -147.515625 -80.59375 -127.332031 -80.40625 -86.96875 L -141.796875 -86.28125 C -141.703125 -75.832031 -138.953125 -65.671875 -133.546875 -55.796875 C -128.046875 -45.816406 -120.351562 -38.265625 -110.46875 -33.140625 C -100.675781 -28.015625 -90.796875 -25.453125 -80.828125 -25.453125 C -63.953125 -25.546875 -49.59375 -31.507812 -37.75 -43.34375 C -25.726562 -55.28125 -19.71875 -69.640625 -19.71875 -86.421875 C -19.71875 -103.285156 -25.679688 -117.6875 -37.609375 -129.625 C -49.453125 -141.457031 -63.8125 -147.421875 -80.6875 -147.515625 Z M -142.34375 -86.421875 C -142.34375 -96.671875 -139.640625 -106.851562 -134.234375 -116.96875 C -128.828125 -127.082031 -121.039062 -134.796875 -110.875 -140.109375 C -100.71875 -145.421875 -90.703125 -148.078125 -80.828125 -148.078125 C -63.765625 -148.078125 -49.21875 -142.0625 -37.1875 -130.03125 C -25.164062 -118.007812 -19.15625 -103.472656 -19.15625 -86.421875 C -19.15625 -69.453125 -25.191406 -54.953125 -37.265625 -42.921875 C -49.335938 -30.898438 -63.859375 -24.890625 -80.828125 -24.890625 C -90.890625 -24.890625 -100.882812 -27.472656 -110.8125 -32.640625 C -120.738281 -37.816406 -128.472656 -45.414062 -134.015625 -55.4375 C -139.566406 -65.457031 -142.34375 -75.785156 -142.34375 -86.421875 Z M -142.34375 -86.421875 "/></g></g></g></svg>