<svg xmlns="http://www.w3.org/2000/svg" xmlns:xlink="http://www.w3.org/1999/xlink" width="472" zoomAndPan="magnify" viewBox="0 0 354 455.999984" height="608" preserveAspectRatio="xMidYMid meet" version="1.2"><defs/><g id="7db52b41be"><g style="fill:#000000;fill-opacity:1;"><g transform="translate(90.413209, 319.480505)"><path style="stroke:none" d="M 147.515625 -80.6875 C 147.515625 -80.6875 127.332031 -80.59375 86.96875 -80.40625 L 86.28125 -141.796875 C 75.832031 -141.703125 65.671875 -138.953125 55.796875 -133.546875 C 45.816406 -128.046875 38.265625 -120.351562 33.140625 -110.46875 C 28.015625 -100.675781 25.453125 -90.796875 25.453125 -80.828125 C 25.546875 -63.953125 31.507812 -49.59375 43.34375 -37.75 C 55.28125 -25.726562 69.640625 -19.71875 86.421875 -19.71875 C 103.285156 -19.71875 117.6875 -25.679688 129.625 -37.609375 C 141.457031 -49.453125 147.421875 -63.8125 147.515625 -80.6875 Z M 86.421875 -142.34375 C 96.671875 -142.34375 106.851562 -139.640625 116.96875 -134.234375 C 127.082031 -128.828125 134.796875 -121.039062 140.109375 -110.875 C 145.421875 -100.71875 148.078125 -90.703125 148.078125 -80.828125 C 148.078125 -63.765625 142.0625 -49.21875 130.03125 -37.1875 C 118.007812 -25.164062 103.472656 -19.15625 86.421875 -19.15625 C 69.453125 -19.15625 54.953125 -25.191406 42.921875 -37.265625 C 30.898438 -49.335938 24.890625 -63.859375 24.890625 -80.828125 C 24.890625 -90.890625 27.472656 -100.882812 32.640625 -110.8125 C 37.816406 -120.738281 45.414062 -128.472656 55.4375 -134.015625 C 65.457031 -139.566406 75.785156 -142.34375 86.421875 -142.34375 Z M 86.421875 -142.34375 "/></g></g></g></svg>